<svg width="20" height="20" viewBox="0 0 20 20" fill="none" xmlns="http://www.w3.org/2000/svg">
<path d="M9.6875 1.875C5.35156 1.875 1.875 5.39062 1.875 9.6875C1.875 14.0234 5.35156 17.5 9.6875 17.5C13.9844 17.5 17.5 14.0234 17.5 9.6875C17.5 5.39062 13.9844 1.875 9.6875 1.875ZM9.6875 0C15 0 19.375 4.375 19.375 9.6875C19.375 15.0391 15 19.375 9.6875 19.375C4.33594 19.375 0 15.0391 0 9.6875C0 4.375 4.33594 0 9.6875 0ZM9.6875 6.5625C11.4062 6.5625 12.8125 7.96875 12.8125 9.6875C12.8125 11.4453 11.4062 12.8125 9.6875 12.8125C7.92969 12.8125 6.5625 11.4453 6.5625 9.6875C6.5625 7.96875 7.92969 6.5625 9.6875 6.5625Z" fill="#00A5F5"/>
</svg>
