<svg width="16" height="16" viewBox="0 0 16 16" fill="none" xmlns="http://www.w3.org/2000/svg">
<path d="M15.5528 9.86276L10.4883 7.99988L15.5969 6.13704C15.8612 6.05424 16.0373 5.76447 15.9932 5.51609C15.9052 4.97793 15.6409 4.48117 15.3327 4.02582C15.0684 3.52906 14.7161 3.11509 14.2757 2.74252C14.0556 2.57694 13.7472 2.57694 13.5271 2.74252L9.25516 5.97145L10.136 0.879672C10.2241 0.589903 10.0479 0.341524 9.78364 0.258724C9.25515 0.0517452 8.63859 -0.0310476 8.06607 0.0103493C7.49355 -0.0310476 6.877 0.0517452 6.34852 0.258724C6.08427 0.341524 5.90811 0.631293 5.99619 0.879672L6.877 5.97145L2.60511 2.74252C2.38491 2.53554 2.07662 2.53554 1.85643 2.74252C1.41602 3.07369 1.06371 3.52906 0.799464 4.02582C0.447149 4.48117 0.226944 4.97793 0.0948237 5.51609C0.050783 5.80586 0.226945 6.05424 0.491179 6.13704L5.51176 7.99988L0.403104 9.86276C0.138863 9.94556 -0.0372952 10.2353 0.00674439 10.4837C0.0948247 11.0219 0.315025 11.5186 0.667342 11.974C0.931586 12.4708 1.2839 12.8847 1.72431 13.2573C1.9445 13.4229 2.25279 13.4229 2.47299 13.2573L6.74487 10.0284L5.86407 15.1201C5.77599 15.4099 5.95215 15.6583 6.2164 15.7824C6.78891 15.948 7.36143 16.0308 7.93395 15.9895C8.50648 16.0308 9.12304 15.948 9.65152 15.7824C9.91576 15.6997 10.0919 15.4099 10.0038 15.1201L9.12304 10.0284L13.3949 13.2573C13.6151 13.4229 13.9234 13.4229 14.1876 13.2573C14.628 12.9261 14.9804 12.5121 15.2446 12.0154C15.5969 11.56 15.8171 11.0633 15.9493 10.5251C15.9932 10.1939 15.8612 9.94556 15.5528 9.86276Z" fill="#00A5F5"/>
</svg>
