<svg xmlns="http://www.w3.org/2000/svg"><defs><clipPath id="clip0_332_3949"><rect width="40" height="32"></rect></clipPath><clipPath id="clip1_332_3949"><rect width="40" height="32"></rect></clipPath><clipPath id="clip0_332_3966"><rect width="32" height="32"></rect></clipPath><clipPath id="clip1_332_3966"><rect width="32" height="32"></rect></clipPath><clipPath id="clip2_332_3966"><rect width="32" height="32"></rect></clipPath><clipPath id="clip0_332_3983"><rect width="32" height="32"></rect></clipPath><clipPath id="clip1_332_3983"><rect width="32" height="32"></rect></clipPath><clipPath id="clip0_333_5089"><rect width="211" height="40"></rect></clipPath></defs><symbol id="benefit-1" viewBox="0 0 40 32"><g clip-path="url(#clip0_332_3949)"><g clip-path="url(#clip1_332_3949)"><path d="M32.3465 1.48022H7.81688C6.58531 1.48022 5.58691 2.47862 5.58691 3.7102V28.2398C5.58691 29.4714 6.58531 30.4697 7.81688 30.4697H32.3465C33.5781 30.4697 34.5765 29.4714 34.5765 28.2398V3.7102C34.5765 2.47862 33.5781 1.48022 32.3465 1.48022Z" stroke-linecap="round" stroke-linejoin="round"></path><path d="M20.0817 26.0092C24.3922 26.0092 27.8866 22.5148 27.8866 18.2043C27.8866 13.8938 24.3922 10.3994 20.0817 10.3994C15.7712 10.3994 12.2769 13.8938 12.2769 18.2043C12.2769 22.5148 15.7712 26.0092 20.0817 26.0092Z" stroke-linecap="round" stroke-linejoin="round"></path><path d="M5.58691 8.17065H12.2768" stroke-linecap="round" stroke-linejoin="round"></path><path d="M27.8862 8.17065H34.5761" stroke-linecap="round" stroke-linejoin="round"></path><path d="M20.0815 18.1387V25.9436" stroke-linecap="round" stroke-linejoin="round"></path><path d="M13.3916 14.1904L20.0815 18.1375" stroke-linecap="round" stroke-linejoin="round"></path><path d="M26.7714 14.1904L20.0815 18.1375" stroke-linecap="round" stroke-linejoin="round"></path></g></g></symbol><symbol id="benefit-2" viewBox="0 0 32 32"><g clip-path="url(#clip0_332_3966)"><g clip-path="url(#clip1_332_3966)"><g clip-path="url(#clip2_332_3966)"><mask id="mask0_332_3966" style="mask-type:luminance" maskUnits="userSpaceOnUse" x="0" y="0" width="32" height="32"><path d="M31.3347 0.365967H0.115234V31.5855H31.3347V0.365967Z"></path></mask><g mask="url(#mask0_332_3966)"><path d="M11.8228 18.7622H2.34545C1.72966 18.7622 1.23047 19.2614 1.23047 19.8771V29.3545C1.23047 29.9703 1.72966 30.4695 2.34545 30.4695H11.8228C12.4386 30.4695 12.9378 29.9703 12.9378 29.3545V19.8771C12.9378 19.2614 12.4386 18.7622 11.8228 18.7622Z" stroke-linecap="round" stroke-linejoin="round"></path><path d="M29.1051 18.7622H19.6277C19.0119 18.7622 18.5127 19.2614 18.5127 19.8771V29.3545C18.5127 29.9703 19.0119 30.4695 19.6277 30.4695H29.1051C29.7208 30.4695 30.22 29.9703 30.22 29.3545V19.8771C30.22 19.2614 29.7208 18.7622 29.1051 18.7622Z" stroke-linecap="round" stroke-linejoin="round"></path><path d="M20.4751 1.48022H10.9978C10.382 1.48022 9.88281 1.97942 9.88281 2.59521V12.0726C9.88281 12.6884 10.382 13.1876 10.9978 13.1876H20.4751C21.0909 13.1876 21.5901 12.6884 21.5901 12.0726V2.59521C21.5901 1.97942 21.0909 1.48022 20.4751 1.48022Z" stroke-linecap="round" stroke-linejoin="round"></path></g></g></g></g></symbol><symbol id="benefit-3" viewBox="0 0 32 32"><g clip-path="url(#clip0_332_3983)"><g clip-path="url(#clip1_332_3983)"><mask id="mask0_332_3983" style="mask-type:luminance" maskUnits="userSpaceOnUse" x="0" y="0" width="32" height="32"><path d="M31.7591 0.365967H0.539551V31.5855H31.7591V0.365967Z"></path></mask><g mask="url(#mask0_332_3983)"><path d="M16.1495 12.6301C24.1548 12.6301 30.6444 10.1341 30.6444 7.05514C30.6444 3.9762 24.1548 1.48022 16.1495 1.48022C8.14429 1.48022 1.65479 3.9762 1.65479 7.05514C1.65479 10.1341 8.14429 12.6301 16.1495 12.6301Z" stroke-linecap="round" stroke-linejoin="round"></path><path d="M1.65479 7.05493V24.8947C1.65479 27.972 8.14398 30.4696 16.1495 30.4696C24.1551 30.4696 30.6444 27.972 30.6444 24.8947V7.05493" stroke-linecap="round" stroke-linejoin="round"></path><path d="M30.6444 15.9756C30.6444 19.0529 24.1551 21.5505 16.1495 21.5505C8.14398 21.5505 1.65479 19.0529 1.65479 15.9756" stroke-linecap="round" stroke-linejoin="round"></path></g></g></g></symbol><symbol id="icon-arrow" viewBox="0 0 15 16"><path d="M7.60028 1.23978e-05L14.754 7.15377C14.8127 7.21236 14.8592 7.28193 14.8909 7.35849C14.9226 7.43506 14.939 7.51713 14.939 7.60001C14.939 7.68289 14.9226 7.76496 14.8909 7.84153C14.8592 7.9181 14.8127 7.98766 14.754 8.04625L7.60028 15.2L6.7078 14.3074L12.784 8.23121H-3.52859e-05V6.96881H12.784L6.7078 0.892493L7.60028 1.23978e-05Z"></path></symbol><symbol id="icon-snowflake" viewBox="0 0 104 104"><path d="M58.9288 104H45.0713C44.2468 104 43.5816 103.335 43.5816 102.51V72.324L22.2343 93.67C21.6523 94.2519 20.71 94.2519 20.128 93.67L10.3307 83.8734C10.0536 83.5963 9.89423 83.2152 9.89423 82.8203C9.89423 82.4254 10.0536 82.0444 10.3307 81.7672L31.6782 60.4213H1.48969C0.665174 60.4213 0 59.7562 0 58.9317V45.0752C0 44.2508 0.665174 43.5856 1.48969 43.5856H31.6782L10.3307 22.2397C10.0536 21.9626 9.89423 21.5815 9.89423 21.1866C9.89423 20.7917 10.0536 20.4106 10.3307 20.1335L20.128 10.337C20.71 9.75498 21.6523 9.75498 22.2343 10.337L43.5816 31.6829V1.48957C43.5816 0.665113 44.2468 0 45.0713 0H58.9288C59.7533 0 60.4184 0.665113 60.4184 1.48957V31.676L81.7658 10.33C82.3478 9.74805 83.2901 9.74805 83.8721 10.33L93.6693 20.1266C93.9465 20.4037 94.1059 20.7848 94.1059 21.1797C94.1059 21.5746 93.9465 21.9556 93.6693 22.2328L72.3219 43.5787H102.51C103.335 43.5787 104 44.2438 104 45.0683V58.9248C104 59.7493 103.335 60.4144 102.51 60.4144H72.3219L93.6693 81.7603C93.9465 82.0374 94.1059 82.4185 94.1059 82.8134C94.1059 83.2083 93.9465 83.5894 93.6693 83.8665L83.8721 93.663C83.2901 94.245 82.3478 94.245 81.7658 93.663L60.4184 72.3171V102.503C60.4184 103.328 59.7533 103.993 58.9288 103.993V104ZM46.561 101.021H57.4391V68.7283C57.4391 68.1255 57.7993 67.5851 58.3606 67.3495C58.9218 67.1209 59.5593 67.2456 59.9819 67.6752L82.819 90.5107L90.5098 82.8203L67.6728 59.9848C67.2501 59.5622 67.1185 58.9179 67.3472 58.3636C67.5758 57.8093 68.1232 57.4421 68.726 57.4421H101.021V46.5648H68.726C68.1232 46.5648 67.5827 46.2045 67.3472 45.6433C67.1116 45.0821 67.2432 44.4447 67.6728 44.0221L90.5098 21.1866L82.819 13.4962L59.9819 36.3318C59.5524 36.7613 58.9149 36.886 58.3606 36.6574C57.8063 36.4288 57.4391 35.8814 57.4391 35.2787V2.97915H46.561V35.2787C46.561 35.8814 46.2007 36.4218 45.6394 36.6574C45.0782 36.886 44.4408 36.7613 44.0181 36.3318L21.1811 13.4962L13.4903 21.1866L36.3273 44.0221C36.7499 44.4447 36.8816 45.0891 36.6529 45.6433C36.4243 46.1976 35.8769 46.5648 35.2741 46.5648H2.97938V57.4421H35.2741C35.8769 57.4421 36.4173 57.8024 36.6529 58.3636C36.8885 58.9248 36.7569 59.5622 36.3273 59.9848L13.4903 82.8203L21.1811 90.5107L44.0181 67.6752C44.4408 67.2525 45.0851 67.1209 45.6394 67.3495C46.1937 67.5782 46.561 68.1255 46.561 68.7283V101.021Z"></path></symbol><symbol id="icon-sun" viewBox="0 0 16 16"><path d="M15.5528 9.86276L10.4883 7.99988L15.5969 6.13704C15.8612 6.05424 16.0373 5.76447 15.9932 5.51609C15.9052 4.97793 15.6409 4.48117 15.3327 4.02582C15.0684 3.52906 14.7161 3.11509 14.2757 2.74252C14.0556 2.57694 13.7472 2.57694 13.5271 2.74252L9.25516 5.97145L10.136 0.879672C10.2241 0.589903 10.0479 0.341524 9.78364 0.258724C9.25515 0.0517452 8.63859 -0.0310476 8.06607 0.0103493C7.49355 -0.0310476 6.877 0.0517452 6.34852 0.258724C6.08427 0.341524 5.90811 0.631293 5.99619 0.879672L6.877 5.97145L2.60511 2.74252C2.38491 2.53554 2.07662 2.53554 1.85643 2.74252C1.41602 3.07369 1.06371 3.52906 0.799464 4.02582C0.447149 4.48117 0.226944 4.97793 0.0948237 5.51609C0.050783 5.80586 0.226945 6.05424 0.491179 6.13704L5.51176 7.99988L0.403104 9.86276C0.138863 9.94556 -0.0372952 10.2353 0.00674439 10.4837C0.0948247 11.0219 0.315025 11.5186 0.667342 11.974C0.931586 12.4708 1.2839 12.8847 1.72431 13.2573C1.9445 13.4229 2.25279 13.4229 2.47299 13.2573L6.74487 10.0284L5.86407 15.1201C5.77599 15.4099 5.95215 15.6583 6.2164 15.7824C6.78891 15.948 7.36143 16.0308 7.93395 15.9895C8.50648 16.0308 9.12304 15.948 9.65152 15.7824C9.91576 15.6997 10.0919 15.4099 10.0038 15.1201L9.12304 10.0284L13.3949 13.2573C13.6151 13.4229 13.9234 13.4229 14.1876 13.2573C14.628 12.9261 14.9804 12.5121 15.2446 12.0154C15.5969 11.56 15.8171 11.0633 15.9493 10.5251C15.9932 10.1939 15.8612 9.94556 15.5528 9.86276Z"></path></symbol><symbol id="icon-tg" viewBox="0 0 22 18"><path clip-rule="evenodd" d="M1.45701 7.55825C7.16813 5.0929 10.9701 3.45473 12.8793 2.65998C18.313 0.405486 19.4552 0.0162194 20.1895 0C20.3527 0 20.7116 0.0324391 20.9564 0.227072C21.1522 0.389266 21.2012 0.600119 21.2338 0.762313C21.2664 0.924507 21.2991 1.26511 21.2664 1.52462C20.9727 4.60631 19.7 12.0835 19.0473 15.522C18.7699 16.9817 18.2314 17.4683 17.7092 17.517C16.567 17.6143 15.7022 16.7709 14.6089 16.0572C12.8792 14.9381 11.9165 14.2406 10.2358 13.1377C8.29404 11.8726 9.55048 11.1752 10.6601 10.0398C10.9538 9.74787 15.9633 5.20643 16.0612 4.80095C16.0775 4.75229 16.0775 4.55765 15.9633 4.46034C15.849 4.36302 15.6859 4.39546 15.5553 4.4279C15.3758 4.46034 12.6345 6.27691 7.29867 9.8614C6.51543 10.3966 5.81378 10.6562 5.1774 10.6399C4.47574 10.6237 3.13771 10.2507 2.12603 9.92628C0.902216 9.53701 -0.076833 9.32616 0.00475445 8.64495C0.0537069 8.28812 0.543231 7.93129 1.45701 7.55825Z"></path></symbol><symbol id="icon-wa" viewBox="0 0 40 40"><path d="M29.1633 23.97C28.6617 23.72 26.2183 22.525 25.7633 22.36C25.3083 22.1917 24.975 22.11 24.6417 22.61C24.3133 23.1017 23.3567 24.2167 23.0683 24.5467C22.7767 24.8717 22.4867 24.8967 21.9917 24.6717C21.4917 24.4217 19.8867 23.8967 17.9867 22.1967C16.5067 20.8717 15.5133 19.2467 15.22 18.7467C14.93 18.2467 15.1883 17.9717 15.4367 17.7217C15.6633 17.4967 15.9383 17.1467 16.1883 16.85C16.4317 16.5483 16.5117 16.3483 16.6833 16.0233C16.85 15.6733 16.765 15.3983 16.6417 15.15C16.5167 14.9 15.5217 12.45 15.105 11.4733C14.705 10.5 14.2933 10.6233 13.985 10.6233C13.6983 10.5983 13.3667 10.5983 13.0333 10.5983C12.7 10.5983 12.1617 10.7217 11.705 11.1967C11.25 11.6967 9.96333 12.8967 9.96333 15.3217C9.96333 17.7467 11.7467 20.0967 11.995 20.4467C12.2433 20.7717 15.5033 25.7717 20.495 27.9217C21.685 28.4217 22.6117 28.7217 23.335 28.97C24.525 29.3483 25.61 29.295 26.4683 29.1717C27.425 29.02 29.4133 27.97 29.8283 26.795C30.2533 25.62 30.2533 24.645 30.1283 24.42C30.005 24.195 29.6783 24.07 29.1783 23.845L29.1633 23.97ZM20.1017 36.25H20.075C17.125 36.25 14.2017 35.45 11.65 33.95L11.05 33.5933L4.8 35.2183L6.475 29.1433L6.07667 28.5183C4.42667 25.8917 3.55 22.8667 3.55 19.7517C3.55 10.6767 10.975 3.27667 20.12 3.27667C24.5433 3.27667 28.695 5.00167 31.8217 8.12667C34.9467 11.225 36.67 15.3767 36.67 19.7767C36.6633 28.85 29.2367 36.2517 20.1117 36.2517L20.1017 36.25ZM34.2 5.74833C30.4 2.075 25.4 0 20.075 0C9.105 0 0.173333 8.89 0.168333 19.8217C0.168333 23.315 1.08333 26.7217 2.82667 29.73L0 40L10.5583 37.2467C13.4683 38.8183 16.7417 39.6533 20.075 39.6583H20.085C31.06 39.6583 39.995 30.765 40 19.8317C40 14.5383 37.9333 9.55667 34.175 5.81333"></path></symbol><symbol id="nmark-logo" viewBox="0 0 211 40"><g clip-path="url(#clip0_333_5089)"><path clip-rule="evenodd" d="M150.373 26.9474H146.012L151.92 15.2982C152.202 14.7368 152.483 14.1754 152.764 13.7544C153.046 13.3333 153.327 12.9123 153.608 12.4912C153.89 12.2105 154.312 11.9298 154.734 11.7895C155.156 11.6491 155.578 11.5088 156.14 11.5088C156.703 11.5088 157.125 11.6491 157.547 11.7895C157.969 11.9298 158.25 12.2105 158.532 12.6316C158.813 12.9123 159.094 13.3333 159.376 13.8947C159.657 14.3158 159.938 14.8772 160.22 15.5789L165.987 27.0877H161.767L159.516 23.0175H152.061L150.373 26.9474ZM154.452 18.9474H157.969L156.14 15.7193L154.452 18.9474Z"></path><path clip-rule="evenodd" d="M203.685 11.6491H211L198.903 19.3684L211.141 27.0877H203.685L197.355 23.1579C197.074 23.0175 196.793 22.7368 196.511 22.5965C196.23 22.4561 196.089 22.1754 195.808 22.0351C195.667 21.8947 195.386 21.614 195.245 21.3333C195.105 21.0526 194.964 20.7719 194.823 20.4912V26.9473H190.885V11.6491H194.823V18.2456C194.964 17.9649 195.105 17.6842 195.245 17.4035C195.386 17.1228 195.527 16.9824 195.808 16.7017C195.949 16.5614 196.23 16.2807 196.511 16.1403C196.793 16 197.074 15.7193 197.355 15.5789L203.685 11.6491Z"></path><path clip-rule="evenodd" d="M167.674 11.5088H183.851C184.414 11.5088 184.976 11.6491 185.539 11.9298C186.102 12.2105 186.524 12.4912 186.946 13.0526C187.368 13.4737 187.649 14.0351 187.93 14.5965C188.212 15.1579 188.352 15.7193 188.352 16.4211C188.352 16.8421 188.212 17.4035 188.071 17.8246C187.93 18.2456 187.649 18.6667 187.508 19.0877C187.79 19.5088 188.071 19.9298 188.212 20.3509C188.352 20.7719 188.493 21.193 188.493 21.7544V26.9474H184.695V21.193H171.613V26.9474H167.674V11.5088ZM171.613 17.2632H184.695V15.4386H171.613V17.2632Z"></path><path clip-rule="evenodd" d="M125.756 26.9473H122.099V15.2982C122.099 14.7368 122.239 14.3158 122.38 13.8947C122.521 13.4737 122.802 13.0526 123.224 12.7719C123.505 12.4912 123.927 12.2105 124.349 11.9298C124.771 11.7894 125.334 11.6491 125.756 11.6491C126.178 11.6491 126.741 11.7894 127.163 11.9298C127.585 12.0701 128.007 12.3508 128.288 12.6315C128.569 12.9122 128.991 13.3333 129.132 13.614C129.413 14.0351 129.554 14.4561 129.835 14.8772L133.211 23.2982L137.009 14.4561C137.291 13.614 137.853 12.9122 138.416 12.3508C138.979 11.9298 139.823 11.6491 140.667 11.6491C141.229 11.6491 141.792 11.7894 142.214 11.9298C142.636 12.2105 143.058 12.4912 143.339 12.9122C143.621 13.3333 143.902 13.7544 144.043 14.3158C144.183 14.8772 144.324 15.2982 144.324 15.8596V26.9473H140.667V15.5789L137.009 23.4386C136.728 24 136.587 24.421 136.306 24.8421C136.025 25.2631 135.743 25.6842 135.462 25.9649C135.181 26.2456 134.899 26.5263 134.477 26.6666C134.055 26.807 133.633 26.9473 133.071 26.9473C132.649 26.9473 132.086 26.807 131.664 26.6666C131.242 26.5263 130.961 26.2456 130.539 25.8245C130.257 25.5438 129.976 25.1228 129.695 24.7017C129.413 24.2807 129.273 23.8596 128.991 23.4386L125.475 15.7193L125.756 26.9473Z"></path><path clip-rule="evenodd" d="M27.9928 31.7192C25.4608 33.4034 22.5068 34.3859 19.2715 34.3859C16.0361 34.3859 12.9415 33.4034 10.5501 31.7192L7.73682 34.5263C10.9721 36.9122 14.9108 38.3157 19.2715 38.3157C23.6321 38.3157 27.5708 36.9122 30.8061 34.5263L27.9928 31.7192Z"></path><path clip-rule="evenodd" d="M6.61133 27.7895C4.92333 25.2632 3.93867 22.3158 3.93867 19.0877C3.93867 15.8596 4.92333 12.9123 6.61133 10.386L3.798 7.57895C1.40667 10.807 0 14.8772 0 19.0877C0 23.4386 1.40667 27.3684 3.798 30.5965L6.61133 27.7895Z"></path><path clip-rule="evenodd" d="M27.1488 1.68421C24.7575 0.561404 21.9441 0 19.2715 0C14.9108 0 10.9721 1.40351 7.73682 3.78947L10.5501 6.59649C13.0821 4.91228 16.0361 3.78947 19.4121 3.78947C20.6781 3.78947 21.9441 4.07018 23.2101 4.35088L27.1488 1.68421Z"></path><path clip-rule="evenodd" d="M36.8545 11.228L34.0412 15.1579C34.4632 16.421 34.6039 17.8245 34.6039 19.0877C34.6039 22.3157 33.6192 25.4035 31.7905 27.9298L34.6039 30.7368C36.9952 27.5087 38.5425 23.5789 38.5425 19.228C38.5425 16.421 37.9799 13.7543 36.8545 11.228Z"></path><path clip-rule="evenodd" d="M48.8115 14.8772C48.8115 14.3158 48.9522 13.8947 49.0929 13.4737C49.3742 13.0526 49.6555 12.6316 49.9369 12.3509C50.3589 12.0702 50.6402 11.7895 51.2029 11.5088C51.6249 11.3684 52.0469 11.2281 52.6095 11.2281C53.7349 11.2281 54.7195 11.7895 55.7042 12.7719L65.9729 23.0175V11.6491H69.7709V22.8772C69.7709 23.4386 69.6302 24 69.4895 24.5614C69.3489 25.1228 69.0675 25.5439 68.7862 25.9649C68.5049 26.386 68.0829 26.6667 67.6609 26.9474C67.2389 27.2281 66.6762 27.2281 66.1135 27.2281C65.8322 27.2281 65.5509 27.2281 65.2695 27.0877C64.9882 27.0877 64.8475 26.9474 64.5662 26.807C64.2849 26.6667 64.0035 26.5263 63.8629 26.386C63.5815 26.2456 63.3002 25.9649 63.0189 25.6842L52.7502 15.4386V26.9474H48.9522L48.8115 14.8772Z"></path><path clip-rule="evenodd" d="M78.4923 11.5088H94.2469V15.4386H76.9449V17.2632H94.2469V21.193H76.9449V22.8772H94.2469V26.9474H78.4923C77.7889 26.9474 77.0856 26.807 76.5229 26.5263C75.8196 26.2456 75.2569 25.9649 74.8349 25.5439C74.4129 25.1228 73.9909 24.5614 73.7096 24C73.4283 23.4386 73.2876 22.7369 73.2876 22.0351V16.5614C73.2876 15.8597 73.4283 15.1579 73.7096 14.4562C73.9909 13.8948 74.4129 13.3334 74.8349 12.9123C75.2569 12.4912 75.8196 12.2105 76.5229 11.9298C76.9449 11.6491 77.6483 11.5088 78.4923 11.5088Z"></path><path clip-rule="evenodd" d="M100.577 11.6492L102.546 23.0176L105.078 14.3159C105.219 13.8948 105.36 13.4738 105.641 13.0527C105.922 12.6316 106.204 12.3509 106.485 12.0702C106.766 11.7895 107.188 11.6492 107.61 11.5088C108.032 11.3685 108.454 11.3685 109.017 11.3685C109.439 11.3685 109.861 11.3685 110.142 11.5088C110.564 11.6492 110.846 11.7895 111.127 12.0702C111.408 12.3509 111.69 12.6316 111.83 12.9123C112.112 13.3334 112.252 13.6141 112.393 14.0352L114.925 22.5966L117.035 11.5088H120.833L118.582 23.7194C118.442 24.1404 118.301 24.7018 118.02 24.9825C117.738 25.4036 117.457 25.6843 117.176 26.1053C116.894 26.386 116.472 26.6667 116.05 26.8071C115.628 26.9474 115.206 27.0878 114.784 27.0878C113.8 27.0878 113.096 26.8071 112.393 26.2457C111.83 25.6843 111.268 24.9825 110.986 23.8597L108.736 15.4387L106.344 23.8597C106.204 24.2808 106.063 24.8422 105.782 25.1229C105.5 25.5439 105.219 25.8246 104.938 26.1053C104.656 26.386 104.234 26.5264 103.812 26.8071C103.39 26.9474 102.968 27.0878 102.406 27.0878C101.984 27.0878 101.562 26.9474 101.14 26.8071C100.718 26.6667 100.436 26.386 100.014 26.1053C99.7329 25.8246 99.4516 25.4036 99.1702 24.9825C99.0296 24.5615 98.8889 24.1404 98.7482 23.7194L96.4976 11.6492H100.577Z"></path><path clip-rule="evenodd" d="M5.76758 23.0175L36.5736 1.96484L15.4736 32.5613L16.4582 21.8947L5.76758 23.0175Z"></path></g></symbol></svg>