<svg width="40" height="40" viewBox="0 0 40 40" fill="none" xmlns="http://www.w3.org/2000/svg">
<path d="M29.1633 23.97C28.6617 23.72 26.2183 22.525 25.7633 22.36C25.3083 22.1917 24.975 22.11 24.6417 22.61C24.3133 23.1017 23.3567 24.2167 23.0683 24.5467C22.7767 24.8717 22.4867 24.8967 21.9917 24.6717C21.4917 24.4217 19.8867 23.8967 17.9867 22.1967C16.5067 20.8717 15.5133 19.2467 15.22 18.7467C14.93 18.2467 15.1883 17.9717 15.4367 17.7217C15.6633 17.4967 15.9383 17.1467 16.1883 16.85C16.4317 16.5483 16.5117 16.3483 16.6833 16.0233C16.85 15.6733 16.765 15.3983 16.6417 15.15C16.5167 14.9 15.5217 12.45 15.105 11.4733C14.705 10.5 14.2933 10.6233 13.985 10.6233C13.6983 10.5983 13.3667 10.5983 13.0333 10.5983C12.7 10.5983 12.1617 10.7217 11.705 11.1967C11.25 11.6967 9.96333 12.8967 9.96333 15.3217C9.96333 17.7467 11.7467 20.0967 11.995 20.4467C12.2433 20.7717 15.5033 25.7717 20.495 27.9217C21.685 28.4217 22.6117 28.7217 23.335 28.97C24.525 29.3483 25.61 29.295 26.4683 29.1717C27.425 29.02 29.4133 27.97 29.8283 26.795C30.2533 25.62 30.2533 24.645 30.1283 24.42C30.005 24.195 29.6783 24.07 29.1783 23.845L29.1633 23.97ZM20.1017 36.25H20.075C17.125 36.25 14.2017 35.45 11.65 33.95L11.05 33.5933L4.8 35.2183L6.475 29.1433L6.07667 28.5183C4.42667 25.8917 3.55 22.8667 3.55 19.7517C3.55 10.6767 10.975 3.27667 20.12 3.27667C24.5433 3.27667 28.695 5.00167 31.8217 8.12667C34.9467 11.225 36.67 15.3767 36.67 19.7767C36.6633 28.85 29.2367 36.2517 20.1117 36.2517L20.1017 36.25ZM34.2 5.74833C30.4 2.075 25.4 0 20.075 0C9.105 0 0.173333 8.89 0.168333 19.8217C0.168333 23.315 1.08333 26.7217 2.82667 29.73L0 40L10.5583 37.2467C13.4683 38.8183 16.7417 39.6533 20.075 39.6583H20.085C31.06 39.6583 39.995 30.765 40 19.8317C40 14.5383 37.9333 9.55667 34.175 5.81333" fill="#001822"/>
</svg>
