<svg width="104" height="104" viewBox="0 0 104 104" fill="none" xmlns="http://www.w3.org/2000/svg">
<path d="M58.9288 104H45.0713C44.2468 104 43.5816 103.335 43.5816 102.51V72.324L22.2343 93.67C21.6523 94.2519 20.71 94.2519 20.128 93.67L10.3307 83.8734C10.0536 83.5963 9.89423 83.2152 9.89423 82.8203C9.89423 82.4254 10.0536 82.0444 10.3307 81.7672L31.6782 60.4213H1.48969C0.665174 60.4213 0 59.7562 0 58.9317V45.0752C0 44.2508 0.665174 43.5856 1.48969 43.5856H31.6782L10.3307 22.2397C10.0536 21.9626 9.89423 21.5815 9.89423 21.1866C9.89423 20.7917 10.0536 20.4106 10.3307 20.1335L20.128 10.337C20.71 9.75498 21.6523 9.75498 22.2343 10.337L43.5816 31.6829V1.48957C43.5816 0.665113 44.2468 0 45.0713 0H58.9288C59.7533 0 60.4184 0.665113 60.4184 1.48957V31.676L81.7658 10.33C82.3478 9.74805 83.2901 9.74805 83.8721 10.33L93.6693 20.1266C93.9465 20.4037 94.1059 20.7848 94.1059 21.1797C94.1059 21.5746 93.9465 21.9556 93.6693 22.2328L72.3219 43.5787H102.51C103.335 43.5787 104 44.2438 104 45.0683V58.9248C104 59.7493 103.335 60.4144 102.51 60.4144H72.3219L93.6693 81.7603C93.9465 82.0374 94.1059 82.4185 94.1059 82.8134C94.1059 83.2083 93.9465 83.5894 93.6693 83.8665L83.8721 93.663C83.2901 94.245 82.3478 94.245 81.7658 93.663L60.4184 72.3171V102.503C60.4184 103.328 59.7533 103.993 58.9288 103.993V104ZM46.561 101.021H57.4391V68.7283C57.4391 68.1255 57.7993 67.5851 58.3606 67.3495C58.9218 67.1209 59.5593 67.2456 59.9819 67.6752L82.819 90.5107L90.5098 82.8203L67.6728 59.9848C67.2501 59.5622 67.1185 58.9179 67.3472 58.3636C67.5758 57.8093 68.1232 57.4421 68.726 57.4421H101.021V46.5648H68.726C68.1232 46.5648 67.5827 46.2045 67.3472 45.6433C67.1116 45.0821 67.2432 44.4447 67.6728 44.0221L90.5098 21.1866L82.819 13.4962L59.9819 36.3318C59.5524 36.7613 58.9149 36.886 58.3606 36.6574C57.8063 36.4288 57.4391 35.8814 57.4391 35.2787V2.97915H46.561V35.2787C46.561 35.8814 46.2007 36.4218 45.6394 36.6574C45.0782 36.886 44.4408 36.7613 44.0181 36.3318L21.1811 13.4962L13.4903 21.1866L36.3273 44.0221C36.7499 44.4447 36.8816 45.0891 36.6529 45.6433C36.4243 46.1976 35.8769 46.5648 35.2741 46.5648H2.97938V57.4421H35.2741C35.8769 57.4421 36.4173 57.8024 36.6529 58.3636C36.8885 58.9248 36.7569 59.5622 36.3273 59.9848L13.4903 82.8203L21.1811 90.5107L44.0181 67.6752C44.4408 67.2525 45.0851 67.1209 45.6394 67.3495C46.1937 67.5782 46.561 68.1255 46.561 68.7283V101.021Z" fill="#00A5F5"/>
</svg>
