<svg width="22" height="18" viewBox="0 0 22 18" fill="none" xmlns="http://www.w3.org/2000/svg">
<path fill-rule="evenodd" clip-rule="evenodd" d="M1.45701 7.55825C7.16813 5.0929 10.9701 3.45473 12.8793 2.65998C18.313 0.405486 19.4552 0.0162194 20.1895 0C20.3527 0 20.7116 0.0324391 20.9564 0.227072C21.1522 0.389266 21.2012 0.600119 21.2338 0.762313C21.2664 0.924507 21.2991 1.26511 21.2664 1.52462C20.9727 4.60631 19.7 12.0835 19.0473 15.522C18.7699 16.9817 18.2314 17.4683 17.7092 17.517C16.567 17.6143 15.7022 16.7709 14.6089 16.0572C12.8792 14.9381 11.9165 14.2406 10.2358 13.1377C8.29404 11.8726 9.55048 11.1752 10.6601 10.0398C10.9538 9.74787 15.9633 5.20643 16.0612 4.80095C16.0775 4.75229 16.0775 4.55765 15.9633 4.46034C15.849 4.36302 15.6859 4.39546 15.5553 4.4279C15.3758 4.46034 12.6345 6.27691 7.29867 9.8614C6.51543 10.3966 5.81378 10.6562 5.1774 10.6399C4.47574 10.6237 3.13771 10.2507 2.12603 9.92628C0.902216 9.53701 -0.076833 9.32616 0.00475445 8.64495C0.0537069 8.28812 0.543231 7.93129 1.45701 7.55825Z" fill="#001822"/>
</svg>
