<svg width="211" height="40" viewBox="0 0 211 40" fill="none" xmlns="http://www.w3.org/2000/svg">
<g clip-path="url(#clip0_333_5089)">
<path fill-rule="evenodd" clip-rule="evenodd" d="M150.373 26.9474H146.012L151.92 15.2982C152.202 14.7368 152.483 14.1754 152.764 13.7544C153.046 13.3333 153.327 12.9123 153.608 12.4912C153.89 12.2105 154.312 11.9298 154.734 11.7895C155.156 11.6491 155.578 11.5088 156.14 11.5088C156.703 11.5088 157.125 11.6491 157.547 11.7895C157.969 11.9298 158.25 12.2105 158.532 12.6316C158.813 12.9123 159.094 13.3333 159.376 13.8947C159.657 14.3158 159.938 14.8772 160.22 15.5789L165.987 27.0877H161.767L159.516 23.0175H152.061L150.373 26.9474ZM154.452 18.9474H157.969L156.14 15.7193L154.452 18.9474Z" fill="#001822"/>
<path fill-rule="evenodd" clip-rule="evenodd" d="M203.685 11.6491H211L198.903 19.3684L211.141 27.0877H203.685L197.355 23.1579C197.074 23.0175 196.793 22.7368 196.511 22.5965C196.23 22.4561 196.089 22.1754 195.808 22.0351C195.667 21.8947 195.386 21.614 195.245 21.3333C195.105 21.0526 194.964 20.7719 194.823 20.4912V26.9473H190.885V11.6491H194.823V18.2456C194.964 17.9649 195.105 17.6842 195.245 17.4035C195.386 17.1228 195.527 16.9824 195.808 16.7017C195.949 16.5614 196.23 16.2807 196.511 16.1403C196.793 16 197.074 15.7193 197.355 15.5789L203.685 11.6491Z" fill="#001822"/>
<path fill-rule="evenodd" clip-rule="evenodd" d="M167.674 11.5088H183.851C184.414 11.5088 184.976 11.6491 185.539 11.9298C186.102 12.2105 186.524 12.4912 186.946 13.0526C187.368 13.4737 187.649 14.0351 187.93 14.5965C188.212 15.1579 188.352 15.7193 188.352 16.4211C188.352 16.8421 188.212 17.4035 188.071 17.8246C187.93 18.2456 187.649 18.6667 187.508 19.0877C187.79 19.5088 188.071 19.9298 188.212 20.3509C188.352 20.7719 188.493 21.193 188.493 21.7544V26.9474H184.695V21.193H171.613V26.9474H167.674V11.5088ZM171.613 17.2632H184.695V15.4386H171.613V17.2632Z" fill="#001822"/>
<path fill-rule="evenodd" clip-rule="evenodd" d="M125.756 26.9473H122.099V15.2982C122.099 14.7368 122.239 14.3158 122.38 13.8947C122.521 13.4737 122.802 13.0526 123.224 12.7719C123.505 12.4912 123.927 12.2105 124.349 11.9298C124.771 11.7894 125.334 11.6491 125.756 11.6491C126.178 11.6491 126.741 11.7894 127.163 11.9298C127.585 12.0701 128.007 12.3508 128.288 12.6315C128.569 12.9122 128.991 13.3333 129.132 13.614C129.413 14.0351 129.554 14.4561 129.835 14.8772L133.211 23.2982L137.009 14.4561C137.291 13.614 137.853 12.9122 138.416 12.3508C138.979 11.9298 139.823 11.6491 140.667 11.6491C141.229 11.6491 141.792 11.7894 142.214 11.9298C142.636 12.2105 143.058 12.4912 143.339 12.9122C143.621 13.3333 143.902 13.7544 144.043 14.3158C144.183 14.8772 144.324 15.2982 144.324 15.8596V26.9473H140.667V15.5789L137.009 23.4386C136.728 24 136.587 24.421 136.306 24.8421C136.025 25.2631 135.743 25.6842 135.462 25.9649C135.181 26.2456 134.899 26.5263 134.477 26.6666C134.055 26.807 133.633 26.9473 133.071 26.9473C132.649 26.9473 132.086 26.807 131.664 26.6666C131.242 26.5263 130.961 26.2456 130.539 25.8245C130.257 25.5438 129.976 25.1228 129.695 24.7017C129.413 24.2807 129.273 23.8596 128.991 23.4386L125.475 15.7193L125.756 26.9473Z" fill="#001822"/>
<path fill-rule="evenodd" clip-rule="evenodd" d="M27.9928 31.7192C25.4608 33.4034 22.5068 34.3859 19.2715 34.3859C16.0361 34.3859 12.9415 33.4034 10.5501 31.7192L7.73682 34.5263C10.9721 36.9122 14.9108 38.3157 19.2715 38.3157C23.6321 38.3157 27.5708 36.9122 30.8061 34.5263L27.9928 31.7192Z" fill="#001822"/>
<path fill-rule="evenodd" clip-rule="evenodd" d="M6.61133 27.7895C4.92333 25.2632 3.93867 22.3158 3.93867 19.0877C3.93867 15.8596 4.92333 12.9123 6.61133 10.386L3.798 7.57895C1.40667 10.807 0 14.8772 0 19.0877C0 23.4386 1.40667 27.3684 3.798 30.5965L6.61133 27.7895Z" fill="#001822"/>
<path fill-rule="evenodd" clip-rule="evenodd" d="M27.1488 1.68421C24.7575 0.561404 21.9441 0 19.2715 0C14.9108 0 10.9721 1.40351 7.73682 3.78947L10.5501 6.59649C13.0821 4.91228 16.0361 3.78947 19.4121 3.78947C20.6781 3.78947 21.9441 4.07018 23.2101 4.35088L27.1488 1.68421Z" fill="#001822"/>
<path fill-rule="evenodd" clip-rule="evenodd" d="M36.8545 11.228L34.0412 15.1579C34.4632 16.421 34.6039 17.8245 34.6039 19.0877C34.6039 22.3157 33.6192 25.4035 31.7905 27.9298L34.6039 30.7368C36.9952 27.5087 38.5425 23.5789 38.5425 19.228C38.5425 16.421 37.9799 13.7543 36.8545 11.228Z" fill="#001822"/>
<path fill-rule="evenodd" clip-rule="evenodd" d="M48.8115 14.8772C48.8115 14.3158 48.9522 13.8947 49.0929 13.4737C49.3742 13.0526 49.6555 12.6316 49.9369 12.3509C50.3589 12.0702 50.6402 11.7895 51.2029 11.5088C51.6249 11.3684 52.0469 11.2281 52.6095 11.2281C53.7349 11.2281 54.7195 11.7895 55.7042 12.7719L65.9729 23.0175V11.6491H69.7709V22.8772C69.7709 23.4386 69.6302 24 69.4895 24.5614C69.3489 25.1228 69.0675 25.5439 68.7862 25.9649C68.5049 26.386 68.0829 26.6667 67.6609 26.9474C67.2389 27.2281 66.6762 27.2281 66.1135 27.2281C65.8322 27.2281 65.5509 27.2281 65.2695 27.0877C64.9882 27.0877 64.8475 26.9474 64.5662 26.807C64.2849 26.6667 64.0035 26.5263 63.8629 26.386C63.5815 26.2456 63.3002 25.9649 63.0189 25.6842L52.7502 15.4386V26.9474H48.9522L48.8115 14.8772Z" fill="#00A5F5"/>
<path fill-rule="evenodd" clip-rule="evenodd" d="M78.4923 11.5088H94.2469V15.4386H76.9449V17.2632H94.2469V21.193H76.9449V22.8772H94.2469V26.9474H78.4923C77.7889 26.9474 77.0856 26.807 76.5229 26.5263C75.8196 26.2456 75.2569 25.9649 74.8349 25.5439C74.4129 25.1228 73.9909 24.5614 73.7096 24C73.4283 23.4386 73.2876 22.7369 73.2876 22.0351V16.5614C73.2876 15.8597 73.4283 15.1579 73.7096 14.4562C73.9909 13.8948 74.4129 13.3334 74.8349 12.9123C75.2569 12.4912 75.8196 12.2105 76.5229 11.9298C76.9449 11.6491 77.6483 11.5088 78.4923 11.5088Z" fill="#00A5F5"/>
<path fill-rule="evenodd" clip-rule="evenodd" d="M100.577 11.6492L102.546 23.0176L105.078 14.3159C105.219 13.8948 105.36 13.4738 105.641 13.0527C105.922 12.6316 106.204 12.3509 106.485 12.0702C106.766 11.7895 107.188 11.6492 107.61 11.5088C108.032 11.3685 108.454 11.3685 109.017 11.3685C109.439 11.3685 109.861 11.3685 110.142 11.5088C110.564 11.6492 110.846 11.7895 111.127 12.0702C111.408 12.3509 111.69 12.6316 111.83 12.9123C112.112 13.3334 112.252 13.6141 112.393 14.0352L114.925 22.5966L117.035 11.5088H120.833L118.582 23.7194C118.442 24.1404 118.301 24.7018 118.02 24.9825C117.738 25.4036 117.457 25.6843 117.176 26.1053C116.894 26.386 116.472 26.6667 116.05 26.8071C115.628 26.9474 115.206 27.0878 114.784 27.0878C113.8 27.0878 113.096 26.8071 112.393 26.2457C111.83 25.6843 111.268 24.9825 110.986 23.8597L108.736 15.4387L106.344 23.8597C106.204 24.2808 106.063 24.8422 105.782 25.1229C105.5 25.5439 105.219 25.8246 104.938 26.1053C104.656 26.386 104.234 26.5264 103.812 26.8071C103.39 26.9474 102.968 27.0878 102.406 27.0878C101.984 27.0878 101.562 26.9474 101.14 26.8071C100.718 26.6667 100.436 26.386 100.014 26.1053C99.7329 25.8246 99.4516 25.4036 99.1702 24.9825C99.0296 24.5615 98.8889 24.1404 98.7482 23.7194L96.4976 11.6492H100.577Z" fill="#00A5F5"/>
<path fill-rule="evenodd" clip-rule="evenodd" d="M5.76758 23.0175L36.5736 1.96484L15.4736 32.5613L16.4582 21.8947L5.76758 23.0175Z" fill="#00A5F5"/>
</g>
<defs>
<clipPath id="clip0_333_5089">
<rect width="211" height="40" fill="white"/>
</clipPath>
</defs>
</svg>
